<?xml version="1.0" standalone="no"?>
<svg xmlns:xlink="http://www.w3.org/1999/xlink" id="wave" style="transform:rotate(0deg); transition: 0.3s" viewBox="0 0 1440 260" version="1.1" xmlns="http://www.w3.org/2000/svg"><defs><linearGradient id="sw-gradient-0" x1="0" x2="0" y1="1" y2="0"><stop stop-color="rgba(243, 106, 62, 1)" offset="0%"/><stop stop-color="rgba(255, 179, 11, 1)" offset="100%"/></linearGradient></defs><path style="transform:translate(0, 0px); opacity:1" fill="url(#sw-gradient-0)" d="M0,182L80,182C160,182,320,182,480,169C640,156,800,130,960,117C1120,104,1280,104,1440,125.7C1600,147,1760,191,1920,203.7C2080,217,2240,199,2400,199.3C2560,199,2720,217,2880,190.7C3040,165,3200,95,3360,91C3520,87,3680,147,3840,156C4000,165,4160,121,4320,91C4480,61,4640,43,4800,47.7C4960,52,5120,78,5280,104C5440,130,5600,156,5760,147.3C5920,139,6080,95,6240,86.7C6400,78,6560,104,6720,108.3C6880,113,7040,95,7200,86.7C7360,78,7520,78,7680,104C7840,130,8000,182,8160,169C8320,156,8480,78,8640,47.7C8800,17,8960,35,9120,73.7C9280,113,9440,173,9600,173.3C9760,173,9920,113,10080,78C10240,43,10400,35,10560,47.7C10720,61,10880,95,11040,95.3C11200,95,11360,61,11440,43.3L11520,26L11520,260L11440,260C11360,260,11200,260,11040,260C10880,260,10720,260,10560,260C10400,260,10240,260,10080,260C9920,260,9760,260,9600,260C9440,260,9280,260,9120,260C8960,260,8800,260,8640,260C8480,260,8320,260,8160,260C8000,260,7840,260,7680,260C7520,260,7360,260,7200,260C7040,260,6880,260,6720,260C6560,260,6400,260,6240,260C6080,260,5920,260,5760,260C5600,260,5440,260,5280,260C5120,260,4960,260,4800,260C4640,260,4480,260,4320,260C4160,260,4000,260,3840,260C3680,260,3520,260,3360,260C3200,260,3040,260,2880,260C2720,260,2560,260,2400,260C2240,260,2080,260,1920,260C1760,260,1600,260,1440,260C1280,260,1120,260,960,260C800,260,640,260,480,260C320,260,160,260,80,260L0,260Z"/></svg>